<svg width="109" height="65" viewBox="0 0 109 65" fill="none" xmlns="http://www.w3.org/2000/svg">
<g clip-path="url(#clip0)">
<path d="M35.5526 43.2212C34.8833 43.2212 34.2978 42.8848 34.0468 42.2121C32.6247 39.185 31.9555 35.9896 31.9555 32.6261C31.9555 20.097 42.0775 9.92236 54.5418 9.92236C60.2302 9.92236 65.6677 12.0246 69.8503 15.8926C70.5196 16.4812 70.6032 17.5744 69.934 18.2471C69.3484 18.9198 68.2609 19.0039 67.5917 18.3312C63.9946 15.0517 59.3937 13.2018 54.5418 13.2018C43.9179 13.2018 35.3016 21.8629 35.3016 32.542C35.3016 35.401 35.8872 38.1759 37.142 40.6986C37.5602 41.5394 37.142 42.5485 36.3054 42.9689C36.0545 43.1371 35.8035 43.2212 35.5526 43.2212Z" fill="#F0BA63"/>
<path d="M54.4582 55.246C48.937 55.246 43.6669 53.2279 39.5679 49.6121C38.8987 49.0235 38.815 47.9303 39.4006 47.2576C39.9862 46.5849 41.0737 46.5008 41.7429 47.0894C45.2563 50.2007 49.7736 51.8825 54.4582 51.8825C65.0821 51.8825 73.6984 43.2214 73.6984 32.5422C73.6984 30.3559 73.3638 28.2537 72.6945 26.2356C72.3599 25.3948 72.8618 24.3857 73.6984 24.1334C74.5349 23.7971 75.5387 24.3016 75.7897 25.1425C76.6262 27.4969 76.9608 30.0196 76.9608 32.4581C77.0445 45.0713 66.9225 55.246 54.4582 55.246Z" fill="#F0BA63"/>
<path d="M33.4612 51.1256C33.1266 51.1256 32.7084 51.0415 32.4574 50.7893C31.7045 50.2007 31.6209 49.1916 32.1228 48.4348L49.8572 25.5629C50.1082 25.2265 50.5265 24.9743 50.9447 24.8902C51.363 24.8061 51.8649 24.9743 52.1995 25.2265L61.5687 32.7104L75.6224 14.211C76.208 13.4542 77.2118 13.3701 77.9647 13.8746C78.7176 14.4633 78.8012 15.4723 78.2993 16.2291L63.2417 36.0739C62.9908 36.4102 62.5725 36.6625 62.1543 36.7466C61.736 36.8307 61.2341 36.6625 60.8995 36.4102L51.5303 28.9264L34.716 50.4529C34.3814 50.8734 33.8795 51.1256 33.4612 51.1256Z" fill="#F0BA63"/>
<path d="M76.9608 16.9018H76.8772L72.9455 16.6496C72.0253 16.5655 71.3561 15.8087 71.4397 14.8837C71.5234 13.9588 72.2763 13.286 73.1964 13.3701L77.1281 13.6224C78.0483 13.7065 78.7175 14.4633 78.6339 15.3882C78.5502 16.2291 77.7974 16.9018 76.9608 16.9018Z" fill="#F0BA63"/>
<path d="M77.7974 21.2742C77.0445 21.2742 76.2916 20.6856 76.1243 19.9288L75.2878 15.4722C75.1205 14.5472 75.7061 13.7063 76.6262 13.5382C77.5464 13.37 78.383 13.9586 78.5503 14.8836L79.3868 19.3402C79.5541 20.2652 78.9685 21.1061 78.0483 21.2742C77.9647 21.2742 77.881 21.2742 77.7974 21.2742Z" fill="#F0BA63"/>
<path d="M53.7889 65.0001C48.8534 65.0001 22.419 63.4865 0.334604 33.4671C-0.0836618 32.8785 -0.0836618 32.0376 0.334604 31.449C24.2594 -1.09307 53.3707 -0.0840104 54.5418 7.7568e-05C55.462 0.0841655 56.2149 0.840957 56.1312 1.76592C56.0476 2.69089 55.2947 3.44768 54.3745 3.3636C54.1235 3.3636 26.4344 2.43863 3.76438 32.5421C26.518 62.6456 54.1235 61.7207 54.4582 61.6366C55.3783 61.6366 56.1312 62.3093 56.2149 63.2342C56.2985 64.1592 55.5457 64.916 54.6255 65.0001C54.4582 65.0001 54.2072 65.0001 53.7889 65.0001Z" fill="#F0BA63"/>
<path d="M55.211 65C54.7928 65 54.5418 65 54.4582 65C53.538 64.9159 52.7851 64.1591 52.8688 63.2342C52.9524 62.3092 53.7053 61.5524 54.6255 61.6365C54.9601 61.6365 82.6493 62.4774 105.319 32.5421C82.5656 2.43858 54.8764 3.36355 54.5418 3.36355C53.6216 3.44764 52.8688 2.69084 52.7851 1.76588C52.7015 0.840909 53.4543 0.0841175 54.3745 2.95583e-05C55.6293 -0.0840584 84.6569 -1.09311 108.665 31.533C109.084 32.1216 109.084 32.9625 108.665 33.5511C86.581 63.5705 60.1466 65 55.211 65Z" fill="#F0BA63"/>
</g>
<defs>
<clipPath id="clip0">
<rect width="109" height="65" fill="white"/>
</clipPath>
</defs>
</svg>
