<svg width="130" height="192" viewBox="0 0 130 192" fill="none" xmlns="http://www.w3.org/2000/svg">
<circle cx="65" cy="79" r="64.5" stroke="#F0BA63"/>
<circle cx="39.5" cy="39.5" r="39.5" fill="url(#paint0_linear)"/>
<circle cx="117.5" cy="118.5" r="12.5" fill="url(#paint1_linear)"/>
<circle cx="65" cy="79" r="42.5" stroke="#231F20" stroke-width="5"/>
<circle cx="65" cy="79" r="59.5" stroke="#231F20"/>
<path d="M65.1219 100.625C71.1545 100.625 75.9193 102.068 79.4165 104.953C83.0011 107.751 84.7933 111.816 84.7933 117.149C84.7933 121.521 83.5693 125.63 81.1213 129.477C78.6733 133.236 75.6133 136.821 71.9413 140.231C68.2693 143.64 64.5973 146.963 60.9253 150.197C57.2533 153.432 54.237 156.667 51.8765 159.902H78.4985C82.0831 159.902 84.3562 159.421 85.3179 158.459C86.2796 157.41 86.9353 155.662 87.2851 153.214H89.5145C89.5145 157.847 89.5582 161.432 89.6456 163.967C89.7331 166.415 89.8642 168.645 90.0391 170.656C88.9025 170.393 86.3233 170.219 82.3016 170.131C78.3673 170.044 74.4331 170 70.4988 170H39.8113V167.771C42.4342 164.885 45.5816 161.825 49.2536 158.591C52.9256 155.268 56.4665 151.684 59.8762 147.837C63.3733 143.903 66.2585 139.662 68.5316 135.116C70.8922 130.482 72.0725 125.455 72.0725 120.035C72.0725 115.051 70.8922 111.467 68.5316 109.281C66.2585 107.008 63.0673 105.871 58.9582 105.871C55.461 105.871 52.2262 106.92 49.2536 109.019C46.281 111.029 43.6582 114.089 41.385 118.199L39.2868 117.018C41.2976 112.909 44.3139 109.15 48.3356 105.74C52.4448 102.33 58.0402 100.625 65.1219 100.625Z" fill="#F0BA63"/>
<defs>
<linearGradient id="paint0_linear" x1="17" y1="17" x2="63" y2="63" gradientUnits="userSpaceOnUse">
<stop stop-color="#FFD130"/>
<stop offset="1" stop-color="#F0BA63" stop-opacity="0"/>
</linearGradient>
<linearGradient id="paint1_linear" x1="110.38" y1="111.38" x2="124.937" y2="125.937" gradientUnits="userSpaceOnUse">
<stop stop-color="#FFD130"/>
<stop offset="1" stop-color="#F0BA63" stop-opacity="0"/>
</linearGradient>
</defs>
</svg>
