<svg width="130" height="192" viewBox="0 0 130 192" fill="none" xmlns="http://www.w3.org/2000/svg">
<circle cx="65" cy="79" r="64.5" stroke="#F0BA63"/>
<circle cx="39.5" cy="39.5" r="39.5" fill="url(#paint0_linear)"/>
<circle cx="117.5" cy="118.5" r="12.5" fill="url(#paint1_linear)"/>
<circle cx="65" cy="79" r="42.5" stroke="#231F20" stroke-width="5"/>
<circle cx="65" cy="79" r="59.5" stroke="#231F20"/>
<path d="M64.6854 100.625C70.106 100.625 74.6086 101.981 78.1932 104.691C81.7777 107.314 83.57 110.942 83.57 115.576C83.57 118.985 82.6083 122.133 80.6849 125.018C78.8489 127.816 76.4446 130.264 73.472 132.362C70.4994 134.373 67.352 135.99 64.0297 137.214C68.1389 137.302 72.0294 138.089 75.7014 139.575C79.3734 140.974 82.3897 143.116 84.7503 146.001C87.1109 148.886 88.2912 152.602 88.2912 157.148C88.2912 162.131 86.8486 166.634 83.9634 170.656C81.0783 174.677 77.2314 178.087 72.4229 180.885C67.7017 183.77 62.456 185.956 56.6857 187.442C51.0029 189.016 45.3637 189.803 39.7683 189.803V187.442C44.2272 187.355 48.5986 186.611 52.8826 185.213C57.1666 183.901 61.0134 181.978 64.4232 179.442C67.9203 176.907 70.6743 173.759 72.6852 170C74.7834 166.241 75.8326 161.957 75.8326 157.148C75.8326 151.99 74.5649 147.749 72.0294 144.427C69.5814 141.017 66.2154 139.138 61.9314 138.788C60.62 139.313 59.4397 139.793 58.3906 140.231C57.4289 140.58 56.5546 140.755 55.7677 140.755C54.3689 140.755 53.6694 140.187 53.6694 139.05C53.6694 138.263 54.0192 137.651 54.7186 137.214C55.418 136.777 56.2049 136.559 57.0792 136.559C57.7786 136.559 58.478 136.646 59.1774 136.821C59.9643 136.908 60.7949 136.996 61.6692 137.083C65.2537 134.373 67.8329 131.4 69.4066 128.165C70.9803 124.843 71.7672 121.521 71.7672 118.199C71.7672 114.089 70.718 111.117 68.6197 109.281C66.6089 107.357 63.8549 106.396 60.3577 106.396C56.7732 106.396 53.4509 107.357 50.3909 109.281C47.4183 111.204 44.9266 114.133 42.9157 118.067L40.6863 117.018C41.9977 114.133 43.7026 111.467 45.8009 109.019C47.8992 106.483 50.4783 104.472 53.5383 102.986C56.6857 101.412 60.4014 100.625 64.6854 100.625Z" fill="#F0BA63"/>
<defs>
<linearGradient id="paint0_linear" x1="17" y1="17" x2="63" y2="63" gradientUnits="userSpaceOnUse">
<stop stop-color="#FFD130"/>
<stop offset="1" stop-color="#F0BA63" stop-opacity="0"/>
</linearGradient>
<linearGradient id="paint1_linear" x1="110.38" y1="111.38" x2="124.937" y2="125.937" gradientUnits="userSpaceOnUse">
<stop stop-color="#FFD130"/>
<stop offset="1" stop-color="#F0BA63" stop-opacity="0"/>
</linearGradient>
</defs>
</svg>
