<svg width="52" height="52" viewBox="0 0 52 52" fill="none" xmlns="http://www.w3.org/2000/svg">
<path fill-rule="evenodd" clip-rule="evenodd" d="M48.4953 0H3.50466C1.57643 0 0 1.57643 0 3.50466V48.4953C0 50.4236 1.57643 52 3.50466 52H48.4953C50.4236 52 52 50.4236 52 48.4953V3.50466C52 1.57643 50.4236 0 48.4953 0ZM49.8111 48.4953C49.8111 49.2183 49.2183 49.8111 48.4953 49.8111H3.50466C2.78166 49.8111 2.1889 49.2183 2.1889 48.4953V3.50466C2.1889 2.78166 2.78166 2.1889 3.50466 2.1889H48.4953C49.2183 2.1889 49.8111 2.78166 49.8111 3.50466V48.4953ZM22.4953 7.52169V45.5728H29.5047V7.52169C29.5047 7.21453 29.401 6.93594 29.1985 6.73342C28.996 6.5309 28.7174 6.42724 28.4102 6.42724H23.5898C23.2826 6.42724 23.004 6.5309 22.8015 6.73342C22.599 6.93594 22.4953 7.21453 22.4953 7.52169ZM27.3158 43.3839H24.6842V32.7183H27.3158V43.3839ZM27.3158 30.5294H24.6842V8.61614H27.3158V30.5294ZM14.4613 13.9489V45.5728H21.4706V13.9489C21.4706 13.6418 21.367 13.3632 21.1644 13.1607C20.9619 12.9581 20.6833 12.8545 20.3762 12.8545H15.5557C15.2486 12.8545 14.97 12.9581 14.7675 13.1607C14.5649 13.3632 14.4613 13.6418 14.4613 13.9489ZM19.2817 43.3839H16.6502V35.9319H19.2817V43.3839ZM19.2817 33.743H16.6502V15.0434H19.2817V33.743ZM38.5634 20.3762V45.5728H45.5728V20.3762C45.5728 20.069 45.4691 19.7904 45.2666 19.5879C45.0641 19.3854 44.7855 19.2817 44.4783 19.2817H39.6579C39.3507 19.2817 39.0721 19.3854 38.8696 19.5879C38.6671 19.7904 38.5634 20.069 38.5634 20.3762ZM43.3839 43.3839H40.7523V35.9319H43.3839V43.3839ZM43.3839 33.743H40.7523V21.4706H43.3839V33.743ZM30.5294 26.8034V45.5728H37.5387V26.8034C37.5387 26.4962 37.4351 26.2177 37.2325 26.0151C37.03 25.8126 36.7514 25.709 36.4443 25.709H31.6238C31.3167 25.709 31.0381 25.8126 30.8356 26.0151C30.633 26.2177 30.5294 26.4962 30.5294 26.8034ZM35.3498 43.3839H32.7183V39.1455H35.3498V43.3839ZM35.3498 36.9566H32.7183V27.8979H35.3498V36.9566ZM6.42724 20.3762V45.5728H13.4366V20.3762C13.4366 20.069 13.3329 19.7904 13.1304 19.5879C12.9279 19.3854 12.6493 19.2817 12.3421 19.2817H7.52169C7.21453 19.2817 6.93594 19.3854 6.73342 19.5879C6.5309 19.7904 6.42724 20.069 6.42724 20.3762ZM11.2477 43.3839H8.61614V39.1455H11.2477V43.3839ZM11.2477 36.9566H8.61614V21.4706H11.2477V36.9566Z" fill="#F0BA63"/>
</svg>
