<svg width="48" height="48" viewBox="0 0 48 48" fill="none" xmlns="http://www.w3.org/2000/svg">
<g clip-path="url(#clip0)">
<path fill-rule="evenodd" clip-rule="evenodd" d="M45 9.44995H36.2999V2.99995C36.2999 1.18427 34.8156 -0.300049 33 -0.300049H15C13.1843 -0.300049 11.7 1.18427 11.7 2.99995V9.44995H2.99995C1.18427 9.44995 -0.300049 10.9343 -0.300049 12.75V45C-0.300049 46.8156 1.18427 48.2999 2.99995 48.2999H45C46.8156 48.2999 48.2999 46.8156 48.2999 45V12.75C48.2999 10.9343 46.8156 9.44995 45 9.44995ZM13.8 2.99995C13.8 2.34064 14.3406 1.79995 15 1.79995H33C33.6593 1.79995 34.2 2.34064 34.2 2.99995V9.44995H33.2999V3.74995C33.2999 3.45678 33.2009 3.18915 33.0058 2.99407C32.8107 2.79899 32.5431 2.69995 32.25 2.69995H15.75C15.4568 2.69995 15.1892 2.79899 14.9941 2.99407C14.799 3.18915 14.7 3.45678 14.7 3.74995V9.44995H13.8V2.99995ZM16.7999 4.79995H31.2V9.44995H16.7999V4.79995ZM46.2 45C46.2 45.6593 45.6593 46.2 45 46.2H2.99995C2.34064 46.2 1.79995 45.6593 1.79995 45V31.7999H8.69995V35.25C8.69995 35.5431 8.79899 35.8107 8.99407 36.0058C9.18915 36.2009 9.45678 36.2999 9.74995 36.2999H14.25C14.5431 36.2999 14.8108 36.2009 15.0058 36.0058C15.2009 35.8107 15.3 35.5431 15.3 35.25V31.7999H32.7V35.25C32.7 35.5431 32.799 35.8107 32.9941 36.0058C33.1892 36.2009 33.4568 36.2999 33.75 36.2999H38.25C38.5431 36.2999 38.8107 36.2009 39.0058 36.0058C39.2009 35.8107 39.2999 35.5431 39.2999 35.25V31.7999H46.2V45ZM46.2 29.7H39.2999V26.25C39.2999 25.9568 39.2009 25.6892 39.0058 25.4941C38.8107 25.299 38.5431 25.2 38.25 25.2H33.75C33.4568 25.2 33.1892 25.299 32.9941 25.4941C32.799 25.6892 32.7 25.9568 32.7 26.25V29.7H15.3V26.25C15.3 25.9568 15.2009 25.6892 15.0058 25.4941C14.8108 25.299 14.5431 25.2 14.25 25.2H9.74995C9.45678 25.2 9.18915 25.299 8.99407 25.4941C8.79899 25.6892 8.69995 25.9568 8.69995 26.25V29.7H1.79995V12.75C1.79995 12.0906 2.34064 11.55 2.99995 11.55H45C45.6593 11.55 46.2 12.0906 46.2 12.75V29.7ZM47.7486 11.5513C47.2837 10.4935 46.2245 9.74995 45 9.74995H36V2.99995C36 2.99997 35.9999 2.99998 35.9999 3V9.75H44.9999C46.2244 9.75 47.2837 10.4935 47.7486 11.5513ZM48 12.75C48 12.75 47.9999 12.75 47.9999 12.75V45C47.9999 45 48 45 48 45V12.75ZM0.0890973 12.025C0.415501 10.7222 1.5997 9.74995 2.99995 9.74995H11.9999V9.75H2.99994C1.5997 9.75 0.415519 10.7222 0.0890973 12.025ZM35.7486 1.80133C35.2837 0.743485 34.2244 0 32.9999 0H14.9999C13.6029 0 12.421 0.967758 12.0914 2.26598C12.421 0.967733 13.6029 -4.88162e-05 15 -4.88162e-05H33C34.2245 -4.88162e-05 35.2837 0.743466 35.7486 1.80133ZM13.2 34.2H10.8V27.2999H13.2V34.2ZM37.2 34.2H34.7999V27.2999H37.2V34.2ZM13.5462 2.63073C13.516 2.74895 13.5 2.87266 13.5 2.99995V9.74995H14.9999V9.75H13.4999V3C13.4999 2.8727 13.516 2.74896 13.5462 2.63073ZM34.5 9.74995H33V3.74995C33 3.74997 32.9999 3.74998 32.9999 3.75V9.75H34.4999L34.5 9.74995ZM32.9393 3.42592C32.83 3.16177 32.5804 3 32.2499 3H15.7499C15.4125 3 15.1593 3.16873 15.0539 3.44292C15.1593 3.1687 15.4125 2.99995 15.75 2.99995H32.25C32.5804 2.99995 32.83 3.16174 32.9393 3.42592ZM16.4999 4.5V9.75H31.4999L31.5 9.74995H16.5L16.4999 4.5ZM45.973 46.1392C45.7106 46.3638 45.3704 46.5 45 46.5H2.99995C2.27808 46.5 1.67104 45.9832 1.53057 45.3013C1.67103 45.9832 2.27805 46.5 2.99994 46.5H44.9999C45.3704 46.5 45.7106 46.3639 45.973 46.1392ZM38.9999 31.5V35.25C38.9999 35.25 39 35.25 39 35.25C39 35.25 39 35.25 39 35.25L38.9999 31.5ZM14.9999 31.5V35.25C14.9999 35.25 15 35.25 15 35.25C15 35.25 15 35.25 15 35.25L14.9999 31.5ZM1.49994 31.5V45C1.49994 45 1.49995 45 1.49995 45L1.49994 31.5ZM10.4999 27V34.5H13.4999L13.5 34.5H10.5L10.4999 27ZM34.4999 27V34.5H37.4999L37.5 34.5H34.5L34.4999 27ZM1.54396 12.3897C1.51521 12.5052 1.49994 12.6259 1.49994 12.75V30H8.99994L8.99995 30H1.49995V12.75C1.49995 12.6259 1.51522 12.5052 1.54396 12.3897ZM9.05386 25.9429C9.15934 25.6687 9.41246 25.5 9.74994 25.5H14.2499C14.6999 25.5 14.9999 25.8 14.9999 26.25V30H32.9999L33 30H15V26.25C15 25.7999 14.7 25.5 14.25 25.5H9.74995C9.41245 25.5 9.15933 25.6687 9.05386 25.9429ZM33.2062 25.7062C33.3374 25.575 33.525 25.5 33.7499 25.5H38.2499C38.5804 25.5 38.83 25.6618 38.9393 25.9259C38.83 25.6617 38.5804 25.5 38.25 25.5H33.75C33.5249 25.5 33.3374 25.5749 33.2062 25.7062ZM39 26.25V30H46.5L46.4999 30H38.9999V26.25C38.9999 26.25 39 26.25 39 26.25Z" fill="#F0BA63"/>
</g>
<defs>
<clipPath id="clip0">
<rect width="48" height="48" fill="white"/>
</clipPath>
</defs>
</svg>
