<svg width="59" height="44" viewBox="0 0 59 44" fill="none" xmlns="http://www.w3.org/2000/svg">
<path fill-rule="evenodd" clip-rule="evenodd" d="M54.4375 1H4.5625C2.60312 1 1 2.575 1 4.5V39.5C1 41.425 2.60312 43 4.5625 43H54.4375C56.3969 43 58 41.425 58 39.5V4.5C58 2.575 56.3969 1 54.4375 1ZM56.2188 39.5C56.2188 40.4625 55.4172 41.25 54.4375 41.25H4.5625C3.58281 41.25 2.78125 40.4625 2.78125 39.5V20.25H56.2188V39.5ZM56.2188 18.5H2.78125V11.5H56.2188V18.5ZM56.2188 9.75H2.78125V4.5C2.78125 3.5375 3.58281 2.75 4.5625 2.75H54.4375C55.4172 2.75 56.2188 3.5375 56.2188 4.5V9.75ZM10.7969 29H23.2656C23.8 29 24.1562 28.65 24.1562 28.125C24.1562 27.6 23.8 27.25 23.2656 27.25H10.7969C10.2625 27.25 9.90625 27.6 9.90625 28.125C9.90625 28.65 10.2625 29 10.7969 29ZM32.1719 29H26.8281C26.2938 29 25.9375 28.65 25.9375 28.125C25.9375 27.6 26.2938 27.25 26.8281 27.25H32.1719C32.7062 27.25 33.0625 27.6 33.0625 28.125C33.0625 28.65 32.7062 29 32.1719 29ZM10.7969 34.25H19.7031C20.2375 34.25 20.5938 33.9 20.5938 33.375C20.5938 32.85 20.2375 32.5 19.7031 32.5H10.7969C10.2625 32.5 9.90625 32.85 9.90625 33.375C9.90625 33.9 10.2625 34.25 10.7969 34.25ZM48.2031 34.25H41.0781C40.5438 34.25 40.1875 33.9 40.1875 33.375V28.125C40.1875 27.6 40.5438 27.25 41.0781 27.25H48.2031C48.7375 27.25 49.0938 27.6 49.0938 28.125V33.375C49.0938 33.9 48.7375 34.25 48.2031 34.25ZM47.3125 29H41.9688V32.5H47.3125V29Z" fill="#F0BA63"/>
<rect x="0.85" y="0.85" width="57.3" height="42.3" stroke="#F0BA63" stroke-width="0.3"/>
</svg>
