<svg width="67" height="55" viewBox="0 0 67 55" fill="none" xmlns="http://www.w3.org/2000/svg">
<path d="M36.7031 39.7561H39.7441C42.6724 39.7561 45.4881 38.9123 47.9096 37.2811L50.1058 35.7623C50.5 35.5373 50.6127 35.0311 50.3311 34.6373C49.9932 34.1311 49.5427 33.7373 49.0359 33.4561C47.9659 32.8373 46.6144 32.8936 45.4881 33.4561C41.3772 35.4811 37.7167 33.7936 37.7167 33.7936C36.3652 32.9498 35.1263 32.3311 33.8874 31.8248C28.8191 29.7436 22.9625 30.5311 18.5137 33.6811" stroke="#F0BA63" stroke-width="2" stroke-miterlimit="10"/>
<path d="M18.57 44.3125C18.57 44.3125 25.4403 42.9625 37.4915 43.6375C40.6451 43.8062 43.855 43.1312 46.6707 41.6125L64.9164 31.9937C65.3106 31.7687 65.4232 31.2625 65.1417 30.925C64.4659 30.0812 63.0017 28.9 60.0171 29.6875C59.6792 29.8 59.3413 29.9125 59.0034 30.025L49.8242 33.9625" stroke="#F0BA63" stroke-width="2" stroke-miterlimit="10"/>
<path d="M11.6433 48.7H18.401V31.2625H11.6433" stroke="#F0BA63" stroke-width="2" stroke-miterlimit="10"/>
<path d="M1 53.3125H11.6433V26.1438H1" stroke="#F0BA63" stroke-width="2" stroke-miterlimit="10" stroke-linecap="round"/>
<path d="M58.4403 19.45H22.0614" stroke="#F0BA63" stroke-width="2" stroke-miterlimit="10"/>
<path d="M28.6502 9.1562C29.9253 9.1562 30.9591 8.12366 30.9591 6.84995C30.9591 5.57624 29.9253 4.5437 28.6502 4.5437C27.375 4.5437 26.3413 5.57624 26.3413 6.84995C26.3413 8.12366 27.375 9.1562 28.6502 9.1562Z" stroke="#F0BA63" stroke-width="2" stroke-miterlimit="10"/>
<path d="M33.4932 8.9312C33.7747 9.09995 34.1126 9.1562 34.4505 9.1562C35.7457 9.1562 36.7594 8.1437 36.7594 6.84995C36.7594 5.5562 35.7457 4.5437 34.4505 4.5437C34.1126 4.5437 33.7747 4.59995 33.4932 4.7687" stroke="#F0BA63" stroke-width="2" stroke-miterlimit="10" stroke-linecap="round"/>
<path d="M26.285 15.0063H30.4522" stroke="#F0BA63" stroke-width="2" stroke-miterlimit="10"/>
<path d="M34.1689 15.0063H38.3925" stroke="#F0BA63" stroke-width="2" stroke-miterlimit="10"/>
<path d="M42.1092 15.0063H46.2765" stroke="#F0BA63" stroke-width="2" stroke-miterlimit="10"/>
<path d="M49.9932 15.0063H54.2167" stroke="#F0BA63" stroke-width="2" stroke-miterlimit="10"/>
<path d="M52.8652 9.1562H49.2611C48.529 9.1562 47.9659 8.5937 47.9659 7.86245V5.83745C47.9659 5.1062 48.529 4.5437 49.2611 4.5437H52.8652C53.5972 4.5437 54.1604 5.1062 54.1604 5.83745V7.86245C54.1604 8.5937 53.5972 9.1562 52.8652 9.1562Z" stroke="#F0BA63" stroke-width="2" stroke-miterlimit="10"/>
<path d="M55.343 1H25.1024C23.413 1 22.0614 2.35 22.0614 4.0375V20.6313C22.0614 22.3188 23.413 23.6687 25.1024 23.6687H55.343C57.0324 23.6687 58.384 22.3188 58.384 20.6313V4.0375C58.4403 2.35 57.0324 1 55.343 1Z" stroke="#F0BA63" stroke-width="2" stroke-miterlimit="10"/>
</svg>
