<svg width="54" height="54" viewBox="0 0 54 54" fill="none" xmlns="http://www.w3.org/2000/svg">
<path fill-rule="evenodd" clip-rule="evenodd" d="M53.0153 41.991L35.9261 24.9018C36.6416 22.9318 37.0375 20.8036 37.0375 18.5187C37.0375 8.33275 28.7047 0 18.5187 0C8.33275 0 0 8.33275 0 18.5187C0 28.7047 8.33275 37.0375 18.5187 37.0375C20.3053 37.0375 22.016 36.8021 23.6498 36.3303L25.4285 38.109C25.8142 38.4947 26.3039 38.6937 26.8 38.6937H29.8125V41.7062C29.8125 42.7829 30.6921 43.6625 31.7687 43.6625H34.7812V46.675C34.7812 47.7516 35.6609 48.6312 36.7375 48.6312H39.75V51.6437C39.75 52.7204 40.6296 53.6 41.7062 53.6H51.6437C52.7204 53.6 53.6 52.7204 53.6 51.6437V43.3625C53.6 42.8664 53.401 42.3767 53.0153 41.991ZM34.9174 27.0604L51.3438 43.4868V49.7601L32.3499 30.7662C33.3519 29.6586 34.2263 28.4235 34.9174 27.0604ZM2.25625 18.5187C2.25625 9.57506 9.57506 2.25625 18.5187 2.25625C27.4624 2.25625 34.7812 9.57506 34.7812 18.5187C34.7812 27.4624 27.4624 34.7812 18.5187 34.7812C9.57506 34.7812 2.25625 27.4624 2.25625 18.5187ZM40.8781 46.375H37.0375V42.5344C37.0375 42.2178 36.9307 41.9306 36.7219 41.7219C36.5131 41.5131 36.226 41.4062 35.9094 41.4062H32.0687V37.5656C32.0687 37.249 31.9619 36.9619 31.7531 36.7531C31.5444 36.5443 31.2572 36.4375 30.9406 36.4375H26.9243L25.9171 35.4303C27.6891 34.6431 29.3236 33.5953 30.7621 32.3457L49.7601 51.3438H42.0062V47.5031C42.0062 47.1865 41.8994 46.8994 41.6906 46.6906C41.4819 46.4818 41.1947 46.375 40.8781 46.375ZM18.5187 8.28125C12.8874 8.28125 8.28125 12.8874 8.28125 18.5187C8.28125 24.1501 12.8874 28.7562 18.5187 28.7562C24.1501 28.7562 28.7562 24.1501 28.7562 18.5187C28.7562 12.8874 24.1501 8.28125 18.5187 8.28125ZM18.5187 26.5C14.1297 26.5 10.5375 22.9078 10.5375 18.5187C10.5375 14.1297 14.1297 10.5375 18.5187 10.5375C22.9078 10.5375 26.5 14.1297 26.5 18.5187C26.5 22.9078 22.9078 26.5 18.5187 26.5ZM18.5187 11.5938C14.7093 11.5938 11.5938 14.7093 11.5938 18.5187C11.5938 22.3282 14.7093 25.4438 18.5187 25.4438C22.3282 25.4438 25.4438 22.3282 25.4438 18.5187C25.4438 14.7093 22.3282 11.5938 18.5187 11.5938ZM18.5187 23.1875C15.9516 23.1875 13.85 21.0859 13.85 18.5187C13.85 15.9516 15.9516 13.85 18.5187 13.85C21.0859 13.85 23.1875 15.9516 23.1875 18.5187C23.1875 21.0859 21.0859 23.1875 18.5187 23.1875Z" fill="#F0BA63"/>
</svg>
