<svg width="1920" height="481" viewBox="0 0 1920 481" fill="none" xmlns="http://www.w3.org/2000/svg">
<path d="M1691.25 431.42C1637.39 424.172 1579.09 419.173 1517.31 416.923C1578.14 419.923 1636.75 424.672 1691.25 431.42Z" fill="url(#paint0_linear)"/>
<path d="M1764.75 442.418C1741.31 438.419 1716.59 434.92 1691.25 431.67C1777.11 443.168 1852.51 459.915 1914.93 480.911L1914.93 478.912C1902.57 474.662 1889.58 470.663 1875.64 466.914C1842.38 457.416 1804.99 449.167 1764.75 442.418Z" fill="url(#paint1_linear)"/>
<path d="M439.762 463.414C784.475 434.17 1159.29 403.925 1475.17 415.673C1489.43 415.923 1503.37 416.423 1516.99 416.923C1503.37 416.173 1489.43 415.673 1475.49 415.173C1316.12 409.424 1138.06 413.924 962.218 423.922C788.594 433.42 615.921 448.667 438.812 463.164C267.089 477.412 115.327 474.412 -4.11124e-06 459.665L-4.13309e-06 459.915C24.7129 463.164 50.6931 465.664 78.2574 467.664C182.495 475.162 302.257 474.412 439.762 463.414Z" fill="url(#paint2_linear)"/>
<path d="M469.228 454.916C807.287 420.922 1187.17 385.179 1516.99 392.677C1664.32 396.177 1804.36 408.674 1915.25 435.669L1915.25 434.67C1893.39 429.421 1870.57 424.921 1846.81 420.672C1749.86 403.675 1636.44 394.927 1517.31 392.427C1350.34 388.678 1167.84 395.927 990.099 408.424C814.574 420.422 641.584 437.919 468.277 454.916C278.812 473.662 118.178 470.163 0.316889 452.416L0.316889 452.916C35.8021 458.165 75.4061 462.164 117.862 464.664C219.248 470.413 334.574 467.913 469.228 454.916Z" fill="url(#paint3_linear)"/>
<path d="M498.059 446.168C830.733 407.175 1213.78 365.433 1557.86 367.682C1684.28 368.682 1808.16 375.931 1916.2 393.677L1916.2 392.927C1809.11 375.431 1685.54 367.932 1558.18 366.932C1383.92 365.682 1197.31 375.931 1017.66 391.178C840.554 405.925 667.247 426.171 497.426 445.668C290.218 469.663 121.03 465.664 0.63366 444.168L0.63366 444.668C45.3069 452.666 97.584 458.165 155.564 460.915C254.099 465.164 366.257 461.165 498.059 446.168Z" fill="url(#paint4_linear)"/>
<path d="M526.891 436.919C854.495 392.677 1238.81 344.186 1596.2 340.187C1705.19 339.187 1814.81 342.437 1916.51 353.435L1916.51 352.685C1815.76 341.937 1706.46 338.687 1596.2 339.687C1414.34 341.687 1224.87 355.434 1043.64 373.431C865.584 391.428 691.961 414.173 525.624 436.669C300.357 466.914 124.515 461.914 0.633903 435.919L0.633903 436.419C53.228 447.667 118.179 454.916 191.367 457.165C288.317 459.915 397.307 454.166 526.891 436.919Z" fill="url(#paint5_linear)"/>
<path d="M226.218 452.916C321.268 454.166 428.04 446.917 555.406 427.421C878.574 377.43 1261.94 321.691 1631.68 310.443C1726.73 307.943 1823.68 308.193 1917.15 313.692L1917.15 312.942C1824.32 307.443 1727.37 306.943 1631.68 309.693C1443.17 315.192 1251.49 332.688 1069.62 354.185C890.931 375.431 718.257 401.676 554.139 426.921C324.119 462.165 149.228 458.415 21.5448 431.42C14.2577 429.67 7.60424 428.171 0.950673 426.421L0.950673 426.671C7.28734 428.421 13.9409 429.92 21.228 431.42C76.9903 444.418 147.01 451.666 226.218 452.916Z" fill="url(#paint6_linear)"/>
<path d="M259.802 448.417C353.584 448.167 458.773 439.169 583.604 417.423C902.654 361.183 1281.9 297.445 1662.73 278.449C1746.38 274.449 1832.24 272.7 1917.47 274.449L1917.47 273.7C1832.55 271.95 1746.38 273.949 1662.42 277.949C1467.56 287.697 1275.25 309.193 1093.7 334.438C915.327 359.434 743.604 388.928 582.337 417.423C355.802 456.915 185.347 455.666 54.8121 430.67C34.2181 426.421 16.4756 421.922 0.634021 417.173L0.634021 417.673C16.4756 422.422 33.9012 426.921 54.1785 430.92C112.159 442.168 181.862 448.667 259.802 448.417Z" fill="url(#paint7_linear)"/>
<path d="M293.069 443.668C385.901 441.918 489.505 431.42 612.119 407.175C927.367 344.436 1299.64 272.45 1688.71 244.205C1762.85 239.206 1840.16 235.457 1918.1 234.207L1918.1 233.207C1840.16 234.457 1763.17 238.206 1688.08 243.455C1488.48 257.702 1296.79 283.448 1116.51 312.942C939.723 341.937 769.267 375.181 611.168 406.925C388.119 450.917 221.149 451.916 87.4457 428.921C52.911 422.422 24.7131 414.923 1.26756 407.175L1.26756 407.675C24.7131 415.423 52.9111 422.922 87.1289 429.171C146.06 439.919 215.763 445.168 293.069 443.668Z" fill="url(#paint8_linear)"/>
<path d="M118.495 427.171C179.327 437.169 249.03 441.418 325.703 438.919C417.901 435.67 520.238 423.422 640.951 396.427C952.396 326.44 1313.58 245.455 1708.04 207.712C1775.84 200.963 1846.18 195.714 1918.42 192.215L1918.42 191.715C1846.18 195.214 1775.21 200.463 1707.09 206.712C1504 225.958 1314.53 256.453 1136.79 290.196C962.852 323.44 794.931 360.933 639.366 395.927C419.802 444.668 255.367 448.167 118.495 426.921C69.0696 418.923 30.7328 407.925 0.950666 397.177L0.950666 397.676C31.0497 408.175 69.0696 419.173 118.495 427.171Z" fill="url(#paint9_linear)"/>
<path d="M358.337 433.42C450.218 428.671 551.921 414.673 670.099 384.679C977.426 306.943 1324.04 216.46 1719.76 168.469C1783.13 160.72 1849.66 153.722 1918.73 148.473L1918.73 147.723C1849.35 153.222 1782.5 159.971 1718.5 167.469C1513.5 192.215 1328.79 227.208 1155.17 265.701C985.347 303.444 820.594 345.186 668.515 384.179C452.752 437.919 289.584 443.668 149.545 424.421C84.5941 414.923 36.4358 399.926 1.26744 387.428L1.26744 387.678C36.4358 400.426 84.5941 415.173 149.545 424.671C211.96 434.17 281.663 437.419 358.337 433.42Z" fill="url(#paint10_linear)"/>
<path d="M179.96 422.672C244.277 431.17 314.931 433.17 391.287 428.171C482.851 421.672 584.238 405.925 699.881 372.931C1002.46 286.697 1330.06 186.466 1722.93 127.977C1785.03 118.978 1850.61 110.48 1919.68 102.981L1919.68 101.981C1850.3 109.48 1783.76 118.228 1721.35 127.477C1517.31 157.971 1339.25 197.464 1171.33 240.706C1007.21 283.198 847.208 329.689 698.297 372.681C486.653 431.92 323.485 439.919 180.277 422.672C101.069 412.174 43.7226 393.927 4.75229 380.43C3.48496 379.93 2.53452 379.68 1.58396 379.18L1.58396 379.68C2.53452 379.93 3.16807 380.43 4.11863 380.68C43.0888 393.927 100.119 412.174 179.96 422.672Z" fill="url(#paint11_linear)"/>
<path d="M210.376 419.922C276.277 427.421 347.564 428.421 424.238 422.172C516.119 414.173 617.188 396.426 729.663 359.933C1026.85 264.701 1330.69 154.221 1715.01 85.2342C1778.69 74.2362 1847.13 63.2383 1920 53.2401L1920 51.9904C1846.5 61.9885 1777.43 73.2364 1713.11 84.4843C1512.55 120.478 1343.68 164.969 1183.37 213.21C1027.17 260.452 872.871 312.192 728.079 359.433C520.871 424.671 357.386 434.669 210.376 419.422C128.951 410.174 68.1187 392.177 26.297 378.68C17.4256 375.68 9.1882 372.931 1.26743 370.181L1.26743 370.431C8.87131 373.181 16.792 375.93 25.6633 378.68C67.8019 392.677 128.634 410.424 210.376 419.922Z" fill="url(#paint12_linear)"/>
<path d="M240.792 416.923C308.594 423.672 380.832 423.672 457.822 415.923C549.703 406.175 651.089 386.429 760.079 346.436C1050.3 241.455 1325.94 120.228 1695.68 41.4925C1763.17 27.4951 1836.04 13.2478 1915.88 0.000244141L1908.91 0.000243531C1831.29 12.9978 1759.37 26.9952 1693.47 40.7427C1498.93 82.4849 1342.73 131.226 1192.24 184.716C1045.54 236.956 898.851 294.196 758.495 346.186C556.99 417.673 391.287 429.671 241.109 416.673C157.148 408.424 92.8318 390.928 48.1584 377.68C30.4159 372.181 14.5742 367.182 1.5842 362.683L1.5842 362.933C14.2574 367.432 30.099 372.431 47.5247 377.68C92.198 391.178 156.515 408.674 240.792 416.923Z" fill="url(#paint13_linear)"/>
<defs>
<linearGradient id="paint0_linear" x1="1604.28" y1="416.923" x2="1604.28" y2="431.42" gradientUnits="userSpaceOnUse">
<stop stop-color="#FFD130" stop-opacity="0"/>
<stop offset="1" stop-color="#FFF59B" stop-opacity="0.18"/>
</linearGradient>
<linearGradient id="paint1_linear" x1="1803.09" y1="431.67" x2="1803.09" y2="480.911" gradientUnits="userSpaceOnUse">
<stop stop-color="#FFD130" stop-opacity="0"/>
<stop offset="1" stop-color="#FFF59B" stop-opacity="0.18"/>
</linearGradient>
<linearGradient id="paint2_linear" x1="758.495" y1="412.638" x2="758.495" y2="472.603" gradientUnits="userSpaceOnUse">
<stop stop-color="#FFD130" stop-opacity="0"/>
<stop offset="1" stop-color="#FFF59B" stop-opacity="0.18"/>
</linearGradient>
<linearGradient id="paint3_linear" x1="957.782" y1="391.438" x2="957.782" y2="467.58" gradientUnits="userSpaceOnUse">
<stop stop-color="#FFD130" stop-opacity="0"/>
<stop offset="1" stop-color="#FFF59B" stop-opacity="0.18"/>
</linearGradient>
<linearGradient id="paint4_linear" x1="958.416" y1="366.829" x2="958.416" y2="462.512" gradientUnits="userSpaceOnUse">
<stop stop-color="#FFD130" stop-opacity="0"/>
<stop offset="1" stop-color="#FFF59B" stop-opacity="0.18"/>
</linearGradient>
<linearGradient id="paint5_linear" x1="958.574" y1="339.516" x2="958.574" y2="457.82" gradientUnits="userSpaceOnUse">
<stop stop-color="#FFD130" stop-opacity="0"/>
<stop offset="1" stop-color="#FFF59B" stop-opacity="0.18"/>
</linearGradient>
<linearGradient id="paint6_linear" x1="959.05" y1="308.062" x2="959.05" y2="453.053" gradientUnits="userSpaceOnUse">
<stop stop-color="#FFD130" stop-opacity="0"/>
<stop offset="1" stop-color="#FFF59B" stop-opacity="0.18"/>
</linearGradient>
<linearGradient id="paint7_linear" x1="959.05" y1="273.063" x2="959.05" y2="448.441" gradientUnits="userSpaceOnUse">
<stop stop-color="#FFD130" stop-opacity="0"/>
<stop offset="1" stop-color="#FFF59B" stop-opacity="0.18"/>
</linearGradient>
<linearGradient id="paint8_linear" x1="959.683" y1="233.207" x2="959.683" y2="443.92" gradientUnits="userSpaceOnUse">
<stop stop-color="#FFD130" stop-opacity="0"/>
<stop offset="1" stop-color="#FFF59B" stop-opacity="0.18"/>
</linearGradient>
<linearGradient id="paint9_linear" x1="959.683" y1="191.715" x2="959.683" y2="439.62" gradientUnits="userSpaceOnUse">
<stop stop-color="#FFD130" stop-opacity="0"/>
<stop offset="1" stop-color="#FFF59B" stop-opacity="0.18"/>
</linearGradient>
<linearGradient id="paint10_linear" x1="960" y1="147.723" x2="960" y2="435.096" gradientUnits="userSpaceOnUse">
<stop stop-color="#FFD130" stop-opacity="0"/>
<stop offset="1" stop-color="#FFF59B" stop-opacity="0.18"/>
</linearGradient>
<linearGradient id="paint11_linear" x1="960.634" y1="101.981" x2="960.634" y2="430.872" gradientUnits="userSpaceOnUse">
<stop stop-color="#FFD130" stop-opacity="0"/>
<stop offset="1" stop-color="#FFF59B" stop-opacity="0.18"/>
</linearGradient>
<linearGradient id="paint12_linear" x1="960.634" y1="51.9903" x2="960.634" y2="426.274" gradientUnits="userSpaceOnUse">
<stop stop-color="#FFD130" stop-opacity="0"/>
<stop offset="1" stop-color="#FFF59B" stop-opacity="0.18"/>
</linearGradient>
<linearGradient id="paint13_linear" x1="958.733" y1="0.000160464" x2="958.733" y2="421.866" gradientUnits="userSpaceOnUse">
<stop stop-color="#FFD130" stop-opacity="0"/>
<stop offset="1" stop-color="#FFF59B" stop-opacity="0.18"/>
</linearGradient>
</defs>
</svg>
