<svg width="77" height="113" viewBox="0 0 77 113" fill="none" xmlns="http://www.w3.org/2000/svg">
<circle cx="38.2694" cy="46.5121" r="37.7694" stroke="url(#paint0_radial)"/>
<circle cx="38.6289" cy="84.7682" r="7.35951" fill="url(#paint1_linear)"/>
<circle cx="38.2694" cy="46.5122" r="34.8256" stroke="url(#paint2_linear)"/>
<path d="M42.3233 28.336V55.408C42.3233 57.456 42.7927 58.8427 43.7313 59.568C44.67 60.2933 46.2487 60.656 48.4673 60.656V62C47.614 61.9573 46.3553 61.9147 44.6913 61.872C43.07 61.7867 41.3847 61.744 39.6353 61.744C37.6727 61.744 35.774 61.7867 33.9393 61.872C32.1473 61.9147 30.7607 61.9573 29.7793 62V60.656C31.9127 60.656 33.5767 60.3147 34.7713 59.632C35.966 58.9067 36.5633 57.4987 36.5633 55.408V39.92C36.5633 37.872 36.35 36.3573 35.9233 35.376C35.4967 34.3947 34.7287 33.7547 33.6193 33.456C32.5527 33.1573 31.0593 33.008 29.1393 33.008V31.6C32.2113 31.5147 34.7713 31.2373 36.8193 30.768C38.8673 30.2987 40.702 29.488 42.3233 28.336Z" fill="#F0BA63"/>
<defs>
<radialGradient id="paint0_radial" cx="0" cy="0" r="1" gradientUnits="userSpaceOnUse" gradientTransform="translate(38.2694 46.5121) rotate(90) scale(38.2694)">
<stop offset="0.822917" stop-color="#F0BA63"/>
<stop offset="1" stop-color="#F0BA63" stop-opacity="0"/>
</radialGradient>
<linearGradient id="paint1_linear" x1="34.4368" y1="80.5761" x2="43.0074" y2="89.1466" gradientUnits="userSpaceOnUse">
<stop stop-color="#FFD130"/>
<stop offset="1" stop-color="#F0BA63" stop-opacity="0"/>
</linearGradient>
<linearGradient id="paint2_linear" x1="38.2694" y1="11.1865" x2="38.2694" y2="81.8378" gradientUnits="userSpaceOnUse">
<stop stop-color="#F0BA63"/>
<stop offset="1" stop-color="#F0BA63" stop-opacity="0"/>
</linearGradient>
</defs>
</svg>
