<svg width="77" height="113" viewBox="0 0 77 113" fill="none" xmlns="http://www.w3.org/2000/svg">
<circle cx="38.2694" cy="46.5121" r="37.7694" stroke="url(#paint0_radial)"/>
<circle cx="38.6289" cy="84.7682" r="7.35951" fill="url(#paint1_linear)"/>
<circle cx="38.2694" cy="46.5122" r="34.8256" stroke="url(#paint2_linear)"/>
<path d="M25.6313 31.1562C26.7563 28.8229 28.3501 26.9062 30.4126 25.4062C32.4751 23.9062 35.0897 23.1562 38.2563 23.1562C41.2355 23.1562 43.5792 23.8646 45.2876 25.2812C46.9959 26.6771 47.8501 28.6562 47.8501 31.2188C47.8501 32.8229 47.4542 34.4167 46.6626 36C45.8709 37.5833 44.8188 39.0729 43.5063 40.4688C42.1938 41.8646 40.8501 43.1771 39.4751 44.4062C38.1209 45.6354 36.6938 46.9479 35.1938 48.3438C33.7147 49.7396 32.5792 50.9792 31.7876 52.0625H44.7876C46.4542 52.0625 47.5376 51.8438 48.0376 51.4062C48.5584 50.9688 48.9022 50.1042 49.0688 48.8125H50.1626C50.1626 52.7292 50.2459 55.5625 50.4126 57.3125C49.4542 57.1042 46.2772 57 40.8813 57H25.8813V55.9062C26.5897 55.1354 27.7772 53.9792 29.4438 52.4375C31.1105 50.8958 32.5376 49.5104 33.7251 48.2812C34.9334 47.0312 36.1938 45.5625 37.5063 43.875C38.8188 42.1875 39.8292 40.3958 40.5376 38.5C41.2667 36.5833 41.6313 34.625 41.6313 32.625C41.6313 28.0208 39.4959 25.7188 35.2251 25.7188C31.7459 25.7188 28.8917 27.7188 26.6626 31.7188L25.6313 31.1562Z" fill="#F0BA63"/>
<defs>
<radialGradient id="paint0_radial" cx="0" cy="0" r="1" gradientUnits="userSpaceOnUse" gradientTransform="translate(38.2694 46.5121) rotate(90) scale(38.2694)">
<stop offset="0.822917" stop-color="#F0BA63"/>
<stop offset="1" stop-color="#F0BA63" stop-opacity="0"/>
</radialGradient>
<linearGradient id="paint1_linear" x1="34.4368" y1="80.5761" x2="43.0074" y2="89.1466" gradientUnits="userSpaceOnUse">
<stop stop-color="#FFD130"/>
<stop offset="1" stop-color="#F0BA63" stop-opacity="0"/>
</linearGradient>
<linearGradient id="paint2_linear" x1="38.2694" y1="11.1865" x2="38.2694" y2="81.8378" gradientUnits="userSpaceOnUse">
<stop stop-color="#F0BA63"/>
<stop offset="1" stop-color="#F0BA63" stop-opacity="0"/>
</linearGradient>
</defs>
</svg>
