<svg width="77" height="113" viewBox="0 0 77 113" fill="none" xmlns="http://www.w3.org/2000/svg">
<circle cx="38.2694" cy="46.5121" r="37.7694" stroke="url(#paint0_radial)"/>
<circle cx="38.6289" cy="84.7682" r="7.35951" fill="url(#paint1_linear)"/>
<circle cx="38.2694" cy="46.5122" r="34.8256" stroke="url(#paint2_linear)"/>
<path d="M25.9126 65.5C28.1417 65.4583 30.2876 65.0938 32.3501 64.4062C34.4334 63.7396 36.3084 62.8021 37.9751 61.5938C39.6417 60.4062 40.9751 58.875 41.9751 57C42.9959 55.1042 43.5063 53.0104 43.5063 50.7188C43.5063 48.2188 42.8917 46.1458 41.6626 44.5C40.4334 42.8333 38.7876 41.9271 36.7251 41.7812C35.1209 42.4062 34.1209 42.7188 33.7251 42.7188C33.0376 42.7188 32.6938 42.4479 32.6938 41.9062C32.6938 41.5312 32.8501 41.2396 33.1626 41.0312C33.4751 40.8021 33.8709 40.6875 34.3501 40.6875C34.6209 40.6875 35.0063 40.7292 35.5063 40.8125C36.0063 40.875 36.3709 40.9167 36.6001 40.9375C39.8709 38.4375 41.5063 35.3646 41.5063 31.7188C41.5063 29.7604 41.0167 28.3125 40.0376 27.375C39.0792 26.4375 37.7147 25.9688 35.9438 25.9688C32.2147 25.9688 29.3813 27.8646 27.4438 31.6562L26.3501 31.1562C28.8084 25.8229 32.7147 23.1562 38.0688 23.1562C40.7772 23.1562 42.9855 23.8125 44.6938 25.125C46.423 26.4375 47.2876 28.2083 47.2876 30.4375C47.2876 32.7917 46.3605 34.9062 44.5063 36.7812C42.6522 38.6562 40.4022 40.0625 37.7563 41C39.298 41.0417 40.7563 41.2708 42.1313 41.6875C43.5063 42.0833 44.7563 42.6667 45.8813 43.4375C47.0272 44.1875 47.9334 45.1979 48.6001 46.4688C49.2667 47.7188 49.6001 49.1354 49.6001 50.7188C49.6001 52.6146 49.1313 54.4167 48.1938 56.125C47.2563 57.8125 45.9959 59.2812 44.4126 60.5312C42.8292 61.8021 41.0167 62.9062 38.9751 63.8438C36.9542 64.7812 34.8188 65.4792 32.5688 65.9375C30.3188 66.4167 28.1001 66.6562 25.9126 66.6562V65.5Z" fill="#F0BA63"/>
<defs>
<radialGradient id="paint0_radial" cx="0" cy="0" r="1" gradientUnits="userSpaceOnUse" gradientTransform="translate(38.2694 46.5121) rotate(90) scale(38.2694)">
<stop offset="0.822917" stop-color="#F0BA63"/>
<stop offset="1" stop-color="#F0BA63" stop-opacity="0"/>
</radialGradient>
<linearGradient id="paint1_linear" x1="34.4368" y1="80.5761" x2="43.0074" y2="89.1466" gradientUnits="userSpaceOnUse">
<stop stop-color="#FFD130"/>
<stop offset="1" stop-color="#F0BA63" stop-opacity="0"/>
</linearGradient>
<linearGradient id="paint2_linear" x1="38.2694" y1="11.1865" x2="38.2694" y2="81.8378" gradientUnits="userSpaceOnUse">
<stop stop-color="#F0BA63"/>
<stop offset="1" stop-color="#F0BA63" stop-opacity="0"/>
</linearGradient>
</defs>
</svg>
