<svg width="77" height="113" viewBox="0 0 77 113" fill="none" xmlns="http://www.w3.org/2000/svg">
<circle cx="38.2694" cy="46.5121" r="37.7694" stroke="url(#paint0_radial)"/>
<circle cx="38.6289" cy="84.7682" r="7.35951" fill="url(#paint1_linear)"/>
<circle cx="38.2694" cy="46.5122" r="34.8256" stroke="url(#paint2_linear)"/>
<path d="M23.2563 53.5312V52.1875L44.0376 23.1562H45.0688V49.25H45.8501C47.5167 49.25 48.6001 49.0312 49.1001 48.5938C49.6209 48.1562 49.9647 47.2917 50.1313 46H51.2251C51.2251 49.5833 51.3084 52.2083 51.4751 53.875C50.8292 53.7083 48.6938 53.6042 45.0688 53.5625V66.0312H39.9438V53.5312H23.2563ZM27.0376 49.25H39.9438V31L27.0376 49.25Z" fill="#F0BA63"/>
<defs>
<radialGradient id="paint0_radial" cx="0" cy="0" r="1" gradientUnits="userSpaceOnUse" gradientTransform="translate(38.2694 46.5121) rotate(90) scale(38.2694)">
<stop offset="0.822917" stop-color="#F0BA63"/>
<stop offset="1" stop-color="#F0BA63" stop-opacity="0"/>
</radialGradient>
<linearGradient id="paint1_linear" x1="34.4368" y1="80.5761" x2="43.0074" y2="89.1466" gradientUnits="userSpaceOnUse">
<stop stop-color="#FFD130"/>
<stop offset="1" stop-color="#F0BA63" stop-opacity="0"/>
</linearGradient>
<linearGradient id="paint2_linear" x1="38.2694" y1="11.1865" x2="38.2694" y2="81.8378" gradientUnits="userSpaceOnUse">
<stop stop-color="#F0BA63"/>
<stop offset="1" stop-color="#F0BA63" stop-opacity="0"/>
</linearGradient>
</defs>
</svg>
