<svg width="77" height="113" viewBox="0 0 77 113" fill="none" xmlns="http://www.w3.org/2000/svg">
<circle cx="38.2694" cy="46.5121" r="37.7694" stroke="url(#paint0_radial)"/>
<circle cx="38.6289" cy="84.7682" r="7.35951" fill="url(#paint1_linear)"/>
<circle cx="38.2694" cy="46.5122" r="34.8256" stroke="url(#paint2_linear)"/>
<path d="M27.5688 65.3125C29.4855 65.2917 31.3188 64.9688 33.0688 64.3438C34.8397 63.7396 36.4438 62.8542 37.8813 61.6875C39.3188 60.5208 40.4647 58.9896 41.3188 57.0938C42.173 55.2188 42.6001 53.1146 42.6001 50.7812C42.6001 48.0729 41.9022 45.9688 40.5063 44.4688C39.1105 42.9688 37.1209 42.2188 34.5376 42.2188C32.8709 42.2188 31.1209 42.5833 29.2876 43.3125L28.6626 42.9062L29.8813 23.8438C30.7355 24.0104 31.8813 24.0938 33.3188 24.0938H40.5688C42.2563 24.0938 43.3501 23.875 43.8501 23.4375C44.3501 23 44.6834 22.1354 44.8501 20.8438H46.0688C46.0688 25.1771 46.1522 28.2917 46.3188 30.1875C45.4022 29.9792 42.4438 29.875 37.4438 29.875H30.6313L29.8813 42.2188C31.048 41.6146 32.1938 41.1458 33.3188 40.8125C34.4438 40.4583 35.798 40.2812 37.3813 40.2812C41.0897 40.2812 43.9022 41.1875 45.8188 43C47.7355 44.8125 48.6938 47.1979 48.6938 50.1562C48.6938 52.0729 48.2772 53.9062 47.4438 55.6562C46.6313 57.3854 45.5272 58.8958 44.1313 60.1875C42.7355 61.4792 41.1313 62.6042 39.3188 63.5625C37.5272 64.5208 35.6209 65.2396 33.6001 65.7188C31.5792 66.2188 29.5688 66.4688 27.5688 66.4688V65.3125Z" fill="#F0BA63"/>
<defs>
<radialGradient id="paint0_radial" cx="0" cy="0" r="1" gradientUnits="userSpaceOnUse" gradientTransform="translate(38.2694 46.5121) rotate(90) scale(38.2694)">
<stop offset="0.822917" stop-color="#F0BA63"/>
<stop offset="1" stop-color="#F0BA63" stop-opacity="0"/>
</radialGradient>
<linearGradient id="paint1_linear" x1="34.4368" y1="80.5761" x2="43.0074" y2="89.1466" gradientUnits="userSpaceOnUse">
<stop stop-color="#FFD130"/>
<stop offset="1" stop-color="#F0BA63" stop-opacity="0"/>
</linearGradient>
<linearGradient id="paint2_linear" x1="38.2694" y1="11.1865" x2="38.2694" y2="81.8378" gradientUnits="userSpaceOnUse">
<stop stop-color="#F0BA63"/>
<stop offset="1" stop-color="#F0BA63" stop-opacity="0"/>
</linearGradient>
</defs>
</svg>
