<svg width="77" height="113" viewBox="0 0 77 113" fill="none" xmlns="http://www.w3.org/2000/svg">
<circle cx="38.2694" cy="46.5121" r="37.7694" stroke="url(#paint0_radial)"/>
<circle cx="38.6289" cy="84.7682" r="7.35951" fill="url(#paint1_linear)"/>
<circle cx="38.2694" cy="46.5122" r="34.8256" stroke="url(#paint2_linear)"/>
<path d="M24.9438 39.7188C24.9438 37.0521 25.1938 34.5312 25.6938 32.1562C26.1938 29.7604 26.8709 27.6458 27.7251 25.8125C28.5792 23.9792 29.5897 22.2917 30.7563 20.75C31.923 19.1875 33.1522 17.8542 34.4438 16.75C35.7355 15.6458 37.1001 14.6771 38.5376 13.8438C39.9959 12.9896 41.3813 12.3229 42.6938 11.8438C44.0272 11.3438 45.3397 10.9688 46.6313 10.7188L46.8813 12C45.4022 12.4792 44.0792 13 42.9126 13.5625C41.7459 14.125 40.4647 14.9792 39.0688 16.125C37.6938 17.2708 36.5167 18.5938 35.5376 20.0938C34.5792 21.5938 33.7042 23.5625 32.9126 26C32.1417 28.4167 31.6209 31.1562 31.3501 34.2188C32.3292 32.4062 33.673 31.0833 35.3813 30.25C37.1105 29.3958 38.8292 28.9688 40.5376 28.9688C42.0376 28.9688 43.4751 29.2812 44.8501 29.9062C46.2251 30.5312 47.4542 31.4167 48.5376 32.5625C49.6209 33.7083 50.4751 35.1771 51.1001 36.9688C51.7459 38.7604 52.0688 40.7396 52.0688 42.9062C52.0688 47.5521 50.7147 51.2188 48.0063 53.9062C45.3188 56.5729 41.9751 57.9062 37.9751 57.9062C33.8917 57.9062 30.6938 56.3125 28.3813 53.125C26.0897 49.9375 24.9438 45.4688 24.9438 39.7188ZM31.1313 39.5938C31.1313 42.8229 31.3501 45.6042 31.7876 47.9375C32.2251 50.25 32.8188 52.0104 33.5688 53.2188C34.3188 54.4271 35.1105 55.3021 35.9438 55.8438C36.7772 56.3646 37.673 56.625 38.6313 56.625C40.7147 56.625 42.4334 55.5417 43.7876 53.375C45.1626 51.1875 45.8501 47.8542 45.8501 43.375C45.8501 39.0417 45.2147 35.8646 43.9438 33.8438C42.673 31.8229 41.0063 30.8125 38.9438 30.8125C37.4438 30.8125 35.9542 31.2604 34.4751 32.1562C33.0167 33.0312 31.9334 34.4271 31.2251 36.3438C31.1626 37.3646 31.1313 38.4479 31.1313 39.5938Z" fill="#F0BA63"/>
<defs>
<radialGradient id="paint0_radial" cx="0" cy="0" r="1" gradientUnits="userSpaceOnUse" gradientTransform="translate(38.2694 46.5121) rotate(90) scale(38.2694)">
<stop offset="0.822917" stop-color="#F0BA63"/>
<stop offset="1" stop-color="#F0BA63" stop-opacity="0"/>
</radialGradient>
<linearGradient id="paint1_linear" x1="34.4368" y1="80.5761" x2="43.0074" y2="89.1466" gradientUnits="userSpaceOnUse">
<stop stop-color="#FFD130"/>
<stop offset="1" stop-color="#F0BA63" stop-opacity="0"/>
</linearGradient>
<linearGradient id="paint2_linear" x1="38.2694" y1="11.1865" x2="38.2694" y2="81.8378" gradientUnits="userSpaceOnUse">
<stop stop-color="#F0BA63"/>
<stop offset="1" stop-color="#F0BA63" stop-opacity="0"/>
</linearGradient>
</defs>
</svg>
