<svg width="77" height="113" viewBox="0 0 77 113" fill="none" xmlns="http://www.w3.org/2000/svg">
<circle cx="38.2694" cy="46.5121" r="37.7694" stroke="url(#paint0_radial)"/>
<circle cx="38.6289" cy="84.7682" r="7.35951" fill="url(#paint1_linear)"/>
<circle cx="38.2694" cy="46.5122" r="34.8256" stroke="url(#paint2_linear)"/>
<path d="M26.6938 23.7812C27.6522 23.9896 30.8292 24.0938 36.2251 24.0938H50.4438V25.4375C49.8605 26.8125 49.0167 28.5625 47.9126 30.6875C46.8084 32.8125 45.8084 34.7812 44.9126 36.5938C44.0167 38.4062 43.1105 40.4479 42.1938 42.7188C41.298 44.9896 40.6001 47.4375 40.1001 50.0625C39.6001 52.6875 39.3605 55.3854 39.3813 58.1562C39.3813 58.8854 39.423 59.8125 39.5063 60.9375C39.5897 62.0625 39.6313 62.8229 39.6313 63.2188C39.6313 64.1771 39.3501 64.9583 38.7876 65.5625C38.2459 66.1667 37.5272 66.4688 36.6313 66.4688C35.6938 66.4688 34.9751 66.125 34.4751 65.4375C33.9959 64.75 33.7563 63.8958 33.7563 62.875C33.7563 60.8333 33.9751 58.75 34.4126 56.625C34.8709 54.4792 35.4022 52.5521 36.0063 50.8438C36.6313 49.1354 37.4751 47.2188 38.5376 45.0938C39.6209 42.9479 40.5584 41.1875 41.3501 39.8125C42.1626 38.4167 43.2251 36.6354 44.5376 34.4688C45.8709 32.2812 46.8605 30.6146 47.5063 29.4688H32.3501C30.6626 29.4688 29.5688 29.6875 29.0688 30.125C28.5688 30.5417 28.2251 31.4167 28.0376 32.75H26.9438C26.9438 28.5417 26.8605 25.5521 26.6938 23.7812Z" fill="#F0BA63"/>
<defs>
<radialGradient id="paint0_radial" cx="0" cy="0" r="1" gradientUnits="userSpaceOnUse" gradientTransform="translate(38.2694 46.5121) rotate(90) scale(38.2694)">
<stop offset="0.822917" stop-color="#F0BA63"/>
<stop offset="1" stop-color="#F0BA63" stop-opacity="0"/>
</radialGradient>
<linearGradient id="paint1_linear" x1="34.4368" y1="80.5761" x2="43.0074" y2="89.1466" gradientUnits="userSpaceOnUse">
<stop stop-color="#FFD130"/>
<stop offset="1" stop-color="#F0BA63" stop-opacity="0"/>
</linearGradient>
<linearGradient id="paint2_linear" x1="38.2694" y1="11.1865" x2="38.2694" y2="81.8378" gradientUnits="userSpaceOnUse">
<stop stop-color="#F0BA63"/>
<stop offset="1" stop-color="#F0BA63" stop-opacity="0"/>
</linearGradient>
</defs>
</svg>
