<svg width="77" height="113" viewBox="0 0 77 113" fill="none" xmlns="http://www.w3.org/2000/svg">
<circle cx="38.2694" cy="46.5121" r="37.7694" stroke="url(#paint0_radial)"/>
<circle cx="38.6289" cy="84.7682" r="7.35951" fill="url(#paint1_linear)"/>
<circle cx="38.2694" cy="46.5122" r="34.8256" stroke="url(#paint2_linear)"/>
<path d="M24.6313 47.1562C24.6313 44.1979 25.5688 41.5729 27.4438 39.2812C29.3188 36.9688 31.8084 35.0417 34.9126 33.5C33.6626 32.4792 32.6209 31.5833 31.7876 30.8125C30.9542 30.0208 30.1105 29.0938 29.2563 28.0312C28.423 26.9688 27.798 25.8333 27.3813 24.625C26.9647 23.4167 26.7563 22.1354 26.7563 20.7812C26.7563 17.8438 27.8709 15.4479 30.1001 13.5938C32.3292 11.7188 35.1209 10.7812 38.4751 10.7812C41.4959 10.7812 44.0063 11.5521 46.0063 13.0938C48.0272 14.6354 49.0376 16.7917 49.0376 19.5625C49.0376 21.8542 48.3292 23.9583 46.9126 25.875C45.5167 27.7917 43.5167 29.625 40.9126 31.375C43.8501 33.5208 45.8813 35.1562 47.0063 36.2812C49.9022 39.1562 51.3501 42.2917 51.3501 45.6875C51.3501 49.3125 50.048 52.2604 47.4438 54.5312C44.8397 56.7812 41.5272 57.9062 37.5063 57.9062C35.7772 57.9062 34.1522 57.6771 32.6313 57.2188C31.1105 56.7812 29.7459 56.1354 28.5376 55.2812C27.3292 54.4062 26.3709 53.2708 25.6626 51.875C24.9751 50.4792 24.6313 48.9062 24.6313 47.1562ZM30.2876 46.1875C30.2876 48.125 30.5167 49.8542 30.9751 51.375C31.4542 52.8958 32.2772 54.1771 33.4438 55.2188C34.6313 56.2396 36.1105 56.75 37.8813 56.75C40.1522 56.75 42.048 56.0104 43.5688 54.5312C45.1105 53.0312 45.8813 50.9792 45.8813 48.375C45.8813 46.8958 45.6313 45.5104 45.1313 44.2188C44.6313 42.9271 43.8709 41.7083 42.8501 40.5625C41.8292 39.3958 40.8605 38.4062 39.9438 37.5938C39.048 36.7812 37.8709 35.8021 36.4126 34.6562C36.3292 34.5938 36.2667 34.5521 36.2251 34.5312C36.1834 34.4896 36.1313 34.4479 36.0688 34.4062C36.0063 34.3438 35.9438 34.2917 35.8813 34.25C32.1522 36.9792 30.2876 40.9583 30.2876 46.1875ZM31.7563 18.7812C31.7563 20.0521 31.9647 21.2604 32.3813 22.4062C32.798 23.5312 33.4334 24.5938 34.2876 25.5938C35.1417 26.5729 35.9751 27.4271 36.7876 28.1562C37.6209 28.8854 38.673 29.7188 39.9438 30.6562C42.5897 28.1354 43.9126 24.7188 43.9126 20.4062C43.9126 17.8229 43.3709 15.7708 42.2876 14.25C41.2251 12.7083 39.7147 11.9375 37.7563 11.9375C36.0272 11.9375 34.5897 12.5625 33.4438 13.8125C32.3188 15.0625 31.7563 16.7188 31.7563 18.7812Z" fill="#F0BA63"/>
<defs>
<radialGradient id="paint0_radial" cx="0" cy="0" r="1" gradientUnits="userSpaceOnUse" gradientTransform="translate(38.2694 46.5121) rotate(90) scale(38.2694)">
<stop offset="0.822917" stop-color="#F0BA63"/>
<stop offset="1" stop-color="#F0BA63" stop-opacity="0"/>
</radialGradient>
<linearGradient id="paint1_linear" x1="34.4368" y1="80.5761" x2="43.0074" y2="89.1466" gradientUnits="userSpaceOnUse">
<stop stop-color="#FFD130"/>
<stop offset="1" stop-color="#F0BA63" stop-opacity="0"/>
</linearGradient>
<linearGradient id="paint2_linear" x1="38.2694" y1="11.1865" x2="38.2694" y2="81.8378" gradientUnits="userSpaceOnUse">
<stop stop-color="#F0BA63"/>
<stop offset="1" stop-color="#F0BA63" stop-opacity="0"/>
</linearGradient>
</defs>
</svg>
